<svg width="32" height="32" viewBox="0 0 32 32" fill="none" xmlns="http://www.w3.org/2000/svg">
<rect width="32" height="32" rx="8" fill="#1C1D1F"/>
<path d="M20.4696 6.98926C21.8595 7.07071 23.0011 7.62052 23.8946 8.63868C24.788 9.63648 25.4333 10.7768 25.8304 12.0597C26.2275 13.3426 26.4261 14.656 26.4261 16C26.4261 17.344 26.2275 18.6574 25.8304 19.9403C25.4532 21.2232 24.8079 22.3737 23.8946 23.3918C23.0011 24.3896 21.8595 24.9293 20.4696 25.0107H9.50976C8.97368 24.9903 8.51702 24.7969 8.13978 24.4304C7.78239 24.0435 7.59377 23.5751 7.57391 23.0253V15.4502C7.59377 14.88 7.80224 14.4117 8.19934 14.0451C8.59644 13.6582 9.07295 13.4648 9.62889 13.4648C10.165 13.4851 10.6216 13.6888 10.9989 14.0757C11.3761 14.4422 11.5747 14.9004 11.5945 15.4502V20.093C11.5945 20.6428 11.8725 20.9177 12.4284 20.9177H19.457C20.2115 20.877 20.8369 20.5817 21.3333 20.0319C21.8297 19.4821 22.1871 18.861 22.4055 18.1687C22.6437 17.456 22.7629 16.7331 22.7629 16C22.7629 15.2669 22.6437 14.5542 22.4055 13.8618C22.1871 13.1491 21.8297 12.5179 21.3333 11.9681C20.8369 11.4183 20.2115 11.123 19.457 11.0823H9.50976C8.31847 10.9804 7.67319 10.3186 7.57391 9.09685C7.57391 8.52668 7.75261 8.03796 8.10999 7.6307C8.48724 7.22343 8.95382 7.00962 9.50976 6.98926H20.4696Z" fill="white"/>
</svg>
