<!-- Square favicon using the DLS icon mark from logo.svg -->
<!-- viewBox is square (74.64 × 74.64); icon rect is 74.64 × 30.94 centered vertically (y=21.85) -->
<svg width="74" height="74" viewBox="0 0 74.6406 74.6406" fill="none" xmlns="http://www.w3.org/2000/svg">
  <!-- Dark rounded-square background -->
  <rect width="74.6406" height="74.6406" rx="14" fill="#1C1D1F"/>
  <!-- DLS letters (from logo.svg path 7, shifted down to center vertically) -->
  <g transform="translate(0,21.85)">
    <path d="M22.2261 8.39453C23.3477 8.46026 24.2697 8.90394 24.9907 9.72559C25.7116 10.5307 26.2318 11.4511 26.5522 12.4863C26.8727 13.5216 27.0337 14.5814 27.0337 15.666C27.0337 16.7506 26.8727 17.8104 26.5522 18.8457C26.2478 19.8808 25.7276 20.8093 24.9907 21.6309C24.2697 22.4361 23.3477 22.8718 22.2261 22.9375H13.3823C12.9497 22.9211 12.5813 22.7645 12.2769 22.4688C11.9885 22.1565 11.8358 21.7786 11.8198 21.335V15.2227C11.8358 14.7626 12.0043 14.3846 12.3247 14.0889C12.6451 13.7767 13.0295 13.6201 13.478 13.6201C13.9106 13.6365 14.2791 13.8011 14.5835 14.1133C14.8879 14.4091 15.0479 14.779 15.064 15.2227V18.9688C15.064 19.4124 15.2892 19.6348 15.7378 19.6348H21.4097C22.0183 19.6018 22.5229 19.3634 22.9233 18.9199C23.3239 18.4762 23.6123 17.9747 23.7886 17.416C23.9808 16.8409 24.0767 16.2576 24.0767 15.666C24.0767 15.0744 23.9808 14.4991 23.7886 13.9404C23.6123 13.3653 23.3239 12.8558 22.9233 12.4121C22.5229 11.9686 22.0183 11.7302 21.4097 11.6973H13.3823C12.421 11.6151 11.8999 11.0807 11.8198 10.0947C11.8199 9.63483 11.9642 9.24064 12.2524 8.91211C12.5569 8.58345 12.9337 8.41096 13.3823 8.39453H22.2261ZM31.2632 8C31.7118 8 32.097 8.15653 32.4175 8.46875C32.7377 8.76449 32.9054 9.14261 32.9214 9.60254V15.543C32.9054 16.2166 32.9464 16.8409 33.0425 17.416C33.1546 17.9747 33.4105 18.4762 33.811 18.9199C34.2116 19.3635 34.7169 19.6019 35.3257 19.6348H43.0161C43.4647 19.6512 43.8332 19.8237 44.1216 20.1523C44.4259 20.4809 44.5785 20.875 44.5786 21.335C44.5626 21.7786 44.4016 22.1565 44.0972 22.4688C43.8088 22.7645 43.4487 22.9211 43.0161 22.9375H34.5083C33.3868 22.8718 32.4572 22.4858 31.7202 21.7793C30.9992 21.0563 30.4782 20.1769 30.1577 19.1416C29.8533 18.1064 29.6933 17.0055 29.6772 15.8389V9.60254C29.6933 9.15895 29.8534 8.78892 30.1577 8.49316C30.4621 8.18101 30.8307 8.0165 31.2632 8ZM60.8013 8.39453C61.2498 8.39458 61.6258 8.55914 61.9302 8.8877C62.2506 9.19992 62.4116 9.58578 62.4116 10.0459C62.4116 10.506 62.2506 10.8919 61.9302 11.2041C61.6258 11.5327 61.2498 11.6972 60.8013 11.6973H51.187C50.8829 11.7137 50.6266 11.7876 50.4185 11.9189C50.2263 12.0339 50.082 12.1737 49.9858 12.3379C49.8897 12.4858 49.8413 12.6423 49.8413 12.8066C49.8413 12.971 49.8897 13.1355 49.9858 13.2998C50.082 13.4476 50.2262 13.5873 50.4185 13.7188C50.6266 13.8337 50.8828 13.8995 51.187 13.916H58.0132C59.1347 13.9489 60.0559 14.2201 60.7769 14.7295C61.5139 15.2225 62.0349 15.7978 62.3394 16.4551C62.6597 17.0959 62.8198 17.7531 62.8198 18.4268C62.8198 19.084 62.6597 19.7412 62.3394 20.3984C62.0189 21.0393 61.4979 21.6146 60.7769 22.124C60.0559 22.617 59.1347 22.8633 58.0132 22.8633H57.8687C57.7726 22.8797 57.6766 22.8887 57.5806 22.8887H48.4956C48.0471 22.8887 47.6627 22.732 47.3423 22.4199C47.0379 22.0913 46.8853 21.6964 46.8853 21.2363C46.8853 20.7765 47.0455 20.3902 47.3657 20.0781C47.6701 19.7495 48.047 19.585 48.4956 19.585H58.1577C58.462 19.6013 58.7106 19.5445 58.9028 19.4131C59.1111 19.2816 59.2628 19.133 59.3589 18.9688C59.455 18.7881 59.5034 18.6075 59.5034 18.4268C59.5034 18.3117 59.455 18.1552 59.3589 17.958C59.2628 17.7446 59.1109 17.5718 58.9028 17.4404C58.7106 17.309 58.462 17.2352 58.1577 17.2188H51.3315C50.21 17.1859 49.2805 16.9227 48.5435 16.4297C47.8227 15.9368 47.3023 15.3782 46.9819 14.7539C46.6775 14.113 46.5249 13.464 46.5249 12.8066C46.5249 12.1658 46.6849 11.5327 47.0054 10.9082C47.3258 10.2674 47.847 9.70092 48.5679 9.20801C49.2889 8.71504 50.21 8.45183 51.3315 8.41895H51.4761C51.5721 8.40254 51.6681 8.39454 51.7642 8.39453H60.8013Z" fill="#EAEAEC"/>
  </g>
</svg>
