<svg width="32" height="32" viewBox="0 0 32 32" fill="none" xmlns="http://www.w3.org/2000/svg">
<rect width="32" height="32" rx="8" fill="#1C1D1F"/>
<path d="M22.2261 8.39453C23.3477 8.46026 24.2697 8.90394 24.9907 9.72559C25.7116 10.5307 26.2318 11.4511 26.5522 12.4863C26.8727 13.5216 27.0337 14.5814 27.0337 15.666C27.0337 16.7506 26.8727 17.8104 26.5522 18.8457C26.2478 19.8808 25.7276 20.8093 24.9907 21.6309C24.2697 22.4361 23.3477 22.8718 22.2261 22.9375H13.3823C12.9497 22.9211 12.5813 22.7645 12.2769 22.4688C11.9885 22.1565 11.8358 21.7786 11.8198 21.335V15.2227C11.8358 14.7626 12.0043 14.3846 12.3247 14.0889C12.6451 13.7767 13.0295 13.6201 13.478 13.6201C13.9106 13.6365 14.2791 13.8011 14.5835 14.1133C14.8879 14.4091 15.0479 14.779 15.064 15.2227V18.9688C15.064 19.4124 15.2892 19.6348 15.7378 19.6348H21.4097C22.0183 19.6018 22.5229 19.3634 22.9233 18.9199C23.3239 18.4762 23.6123 17.9747 23.7886 17.416C23.9808 16.8409 24.0767 16.2576 24.0767 15.666C24.0767 15.0744 23.9808 14.4991 23.7886 13.9404C23.6123 13.3653 23.3239 12.8558 22.9233 12.4121C22.5229 11.9686 22.0183 11.7302 21.4097 11.6973H13.3823C12.421 11.6151 11.8999 11.0807 11.8198 10.0947C11.8199 9.63483 11.9642 9.24064 12.2524 8.91211C12.5569 8.58345 12.9337 8.41096 13.3823 8.39453H22.2261Z" fill="#EAEAEC"/>
</svg>
