<svg width="127" height="31" viewBox="0 0 127 31" fill="none" xmlns="http://www.w3.org/2000/svg">
<path d="M66.6406 0C71.0587 0.000263875 74.6406 3.58188 74.6406 8V22.9375C74.6406 27.3556 71.0587 30.9372 66.6406 30.9375H8C3.58172 30.9375 0 27.3558 0 22.9375V8C5.15422e-07 3.58172 3.58172 0 8 0H66.6406Z" fill="white"/>
<path fill-rule="evenodd" clip-rule="evenodd" d="M98.8301 12.877C99.7738 12.8771 100.631 13.3249 101.398 14.2207C102.182 15.1165 102.574 15.9975 102.574 16.8613C102.574 17.7089 102.109 18.4054 101.182 18.9492C100.27 19.477 99.2292 19.7411 98.0615 19.7412C96.91 19.7412 95.8617 19.6133 94.918 19.3574C94.6941 20.0611 94.5821 20.6931 94.582 21.2529C94.5821 21.7967 94.75 22.2215 95.0859 22.5254C95.438 22.829 96.0065 22.9814 96.79 22.9814C97.5899 22.9814 98.4065 22.8452 99.2383 22.5732C100.086 22.2855 100.55 22.1407 100.63 22.1406C101.046 22.1408 101.254 22.3012 101.254 22.6211C101.254 23.0529 100.766 23.5254 99.79 24.0371C98.8142 24.533 97.8614 24.7812 96.9336 24.7812C95.686 24.7812 94.6696 24.4124 93.8857 23.6768C93.102 22.9249 92.7101 21.9804 92.71 20.8447C92.71 19.7089 93.0142 18.5248 93.6221 17.293C94.23 16.0452 95.0138 14.9973 95.9736 14.1494C96.9336 13.3014 97.8861 12.877 98.8301 12.877ZM98.9502 14.7734C98.3582 14.7734 97.7416 15.085 97.1016 15.709C96.4616 16.317 95.9177 17.0773 95.4697 17.9893C96.1096 18.1332 96.8385 18.2051 97.6543 18.2051C98.4699 18.205 99.1822 18.0772 99.79 17.8213C100.398 17.5494 100.702 17.1964 100.702 16.7646C100.702 16.333 100.501 15.893 100.102 15.4453C99.7178 14.9976 99.3339 14.7737 98.9502 14.7734Z" fill="white"/>
<path fill-rule="evenodd" clip-rule="evenodd" d="M110.187 12.877C110.906 12.8771 111.571 13.2456 112.179 13.9814C112.786 14.7011 113.091 15.3574 113.091 15.9492C113.091 16.525 112.89 17.1169 112.49 17.7246C112.682 17.9642 112.778 18.1729 112.778 18.3486C112.778 18.7967 112.675 19.5657 112.467 20.6533C112.275 21.741 112.154 22.4531 112.106 22.7891C112.074 23.1249 112.043 23.3976 112.011 23.6055C111.979 23.7971 111.939 23.989 111.891 24.1807C111.827 24.5799 111.682 24.7807 111.459 24.7812C111.171 24.7812 110.93 24.5327 110.738 24.0371C110.562 23.5253 110.459 22.869 110.427 22.0693C109.003 23.8769 107.683 24.7809 106.467 24.7812C105.731 24.7812 105.002 24.4684 104.282 23.8447C103.579 23.205 103.227 22.5487 103.227 21.877C103.227 20.9171 103.578 19.7329 104.282 18.3252C104.986 16.9012 105.899 15.6372 107.019 14.5332C108.139 13.4292 109.195 12.877 110.187 12.877ZM110.402 14.8691C109.778 14.8692 109.051 15.3171 108.219 16.2129C107.387 17.0929 106.682 18.0929 106.106 19.2129C105.531 20.3327 105.242 21.221 105.242 21.877C105.242 22.1486 105.355 22.373 105.578 22.5488C105.802 22.7085 106.067 22.789 106.37 22.7891C107.122 22.7888 107.971 22.2851 108.915 21.2773C109.859 20.2534 110.515 19.0124 110.883 17.5566C110.931 17.3169 111.067 17.173 111.291 17.125V17.1016C111.291 15.614 110.994 14.8696 110.402 14.8691Z" fill="white"/>
<path fill-rule="evenodd" clip-rule="evenodd" d="M125.325 6.15723C125.581 6.15783 125.893 6.39761 126.261 6.87695C126.644 7.34076 126.837 7.78142 126.837 8.19727C126.837 8.61385 126.636 9.79804 126.236 11.749C125.836 13.6849 125.373 15.6936 124.845 17.7734C123.693 22.4429 122.933 24.7792 122.564 24.7812C122.341 24.7811 122.092 24.6446 121.82 24.373C121.565 24.0854 121.437 23.8367 121.437 23.6289C121.437 23.4209 121.493 23.0044 121.604 22.3809C120.037 23.9805 118.669 24.7809 117.501 24.7812C116.797 24.7812 116.157 24.4608 115.581 23.8213C115.021 23.1814 114.741 22.5169 114.741 21.8291C114.741 20.8372 115.005 19.6607 115.533 18.3008C116.077 16.925 116.852 15.6765 117.86 14.5566C118.868 13.4367 119.941 12.877 121.077 12.877C122.213 12.8773 123.005 13.5574 123.453 14.917C124.269 11.5254 124.717 8.84487 124.797 6.87695C124.797 6.39705 124.973 6.15723 125.325 6.15723ZM121.173 14.8691C120.485 14.8691 119.78 15.2928 119.061 16.1406C118.341 16.9886 117.765 17.9654 117.333 19.0693C116.917 20.1572 116.709 21.1015 116.709 21.9014C116.709 22.1889 116.813 22.4209 117.021 22.5967C117.228 22.7724 117.477 22.8613 117.765 22.8613C118.389 22.8611 119.229 22.4133 120.285 21.5176C121.357 20.6217 122.132 19.5645 122.612 18.3486L122.685 18.0615V17.9414C122.685 17.0777 122.532 16.3487 122.229 15.7568C121.941 15.1653 121.589 14.8694 121.173 14.8691Z" fill="white"/>
<path d="M84.4805 7.74121C84.7203 7.74148 85.0166 7.94135 85.3682 8.34082C85.7199 8.74067 85.8965 9.16547 85.8965 9.61328C85.8962 10.7337 85.2087 13.5663 83.833 18.1094C83.1451 20.3171 82.8008 21.6374 82.8008 22.0693C82.801 22.5008 83.009 22.7168 83.4248 22.7168C85.2326 22.7167 87.2172 22.421 89.377 21.8291C90.0645 21.6372 90.4726 21.541 90.6006 21.541C90.7442 21.5411 90.8407 21.5729 90.8887 21.6367C90.9363 21.6849 90.9609 21.7898 90.9609 21.9492C90.9604 22.621 90.1356 23.2529 88.4883 23.8447C86.8566 24.4366 85.1927 24.7333 83.4971 24.7334C82.7294 24.7334 82.0563 24.5092 81.4805 24.0615C80.9208 23.6138 80.6409 23.0851 80.6406 22.4775C80.6406 21.8536 81.1845 19.6369 82.2725 15.8291C83.3763 12.0217 83.9285 9.56517 83.9287 8.46094C83.9287 8.20526 83.9605 8.02119 84.0244 7.90918C84.1044 7.79721 84.2566 7.74124 84.4805 7.74121Z" fill="white"/>
<path d="M22.2261 8.39453C23.3477 8.46026 24.2697 8.90394 24.9907 9.72559C25.7116 10.5307 26.2318 11.4511 26.5522 12.4863C26.8727 13.5216 27.0337 14.5814 27.0337 15.666C27.0337 16.7506 26.8727 17.8104 26.5522 18.8457C26.2478 19.8808 25.7276 20.8093 24.9907 21.6309C24.2697 22.4361 23.3477 22.8718 22.2261 22.9375H13.3823C12.9497 22.9211 12.5813 22.7645 12.2769 22.4688C11.9885 22.1565 11.8358 21.7786 11.8198 21.335V15.2227C11.8358 14.7626 12.0043 14.3846 12.3247 14.0889C12.6451 13.7767 13.0295 13.6201 13.478 13.6201C13.9106 13.6365 14.2791 13.8011 14.5835 14.1133C14.8879 14.4091 15.0479 14.779 15.064 15.2227V18.9688C15.064 19.4124 15.2892 19.6348 15.7378 19.6348H21.4097C22.0183 19.6018 22.5229 19.3634 22.9233 18.9199C23.3239 18.4762 23.6123 17.9747 23.7886 17.416C23.9808 16.8409 24.0767 16.2576 24.0767 15.666C24.0767 15.0744 23.9808 14.4991 23.7886 13.9404C23.6123 13.3653 23.3239 12.8558 22.9233 12.4121C22.5229 11.9686 22.0183 11.7302 21.4097 11.6973H13.3823C12.421 11.6151 11.8999 11.0807 11.8198 10.0947C11.8199 9.63483 11.9642 9.24064 12.2524 8.91211C12.5569 8.58345 12.9337 8.41096 13.3823 8.39453H22.2261ZM31.2632 8C31.7118 8 32.097 8.15653 32.4175 8.46875C32.7377 8.76449 32.9054 9.14261 32.9214 9.60254V15.543C32.9054 16.2166 32.9464 16.8409 33.0425 17.416C33.1546 17.9747 33.4105 18.4762 33.811 18.9199C34.2116 19.3635 34.7169 19.6019 35.3257 19.6348H43.0161C43.4647 19.6512 43.8332 19.8237 44.1216 20.1523C44.4259 20.4809 44.5785 20.875 44.5786 21.335C44.5626 21.7786 44.4016 22.1565 44.0972 22.4688C43.8088 22.7645 43.4487 22.9211 43.0161 22.9375H34.5083C33.3868 22.8718 32.4572 22.4858 31.7202 21.7793C30.9992 21.0563 30.4782 20.1769 30.1577 19.1416C29.8533 18.1064 29.6933 17.0055 29.6772 15.8389V9.60254C29.6933 9.15895 29.8534 8.78892 30.1577 8.49316C30.4621 8.18101 30.8307 8.0165 31.2632 8ZM60.8013 8.39453C61.2498 8.39458 61.6258 8.55914 61.9302 8.8877C62.2506 9.19992 62.4116 9.58578 62.4116 10.0459C62.4116 10.506 62.2506 10.8919 61.9302 11.2041C61.6258 11.5327 61.2498 11.6972 60.8013 11.6973H51.187C50.8829 11.7137 50.6266 11.7876 50.4185 11.9189C50.2263 12.0339 50.082 12.1737 49.9858 12.3379C49.8897 12.4858 49.8413 12.6423 49.8413 12.8066C49.8413 12.971 49.8897 13.1355 49.9858 13.2998C50.082 13.4476 50.2262 13.5873 50.4185 13.7188C50.6266 13.8337 50.8828 13.8995 51.187 13.916H58.0132C59.1347 13.9489 60.0559 14.2201 60.7769 14.7295C61.5139 15.2225 62.0349 15.7978 62.3394 16.4551C62.6597 17.0959 62.8198 17.7531 62.8198 18.4268C62.8198 19.084 62.6597 19.7412 62.3394 20.3984C62.0189 21.0393 61.4979 21.6146 60.7769 22.124C60.0559 22.617 59.1347 22.8633 58.0132 22.8633H57.8687C57.7726 22.8797 57.6766 22.8887 57.5806 22.8887H48.4956C48.0471 22.8887 47.6627 22.732 47.3423 22.4199C47.0379 22.0913 46.8853 21.6964 46.8853 21.2363C46.8853 20.7765 47.0455 20.3902 47.3657 20.0781C47.6701 19.7495 48.047 19.585 48.4956 19.585H58.1577C58.462 19.6013 58.7106 19.5445 58.9028 19.4131C59.1111 19.2816 59.2628 19.133 59.3589 18.9688C59.455 18.7881 59.5034 18.6075 59.5034 18.4268C59.5034 18.3117 59.455 18.1552 59.3589 17.958C59.2628 17.7446 59.1109 17.5718 58.9028 17.4404C58.7106 17.309 58.462 17.2352 58.1577 17.2188H51.3315C50.21 17.1859 49.2805 16.9227 48.5435 16.4297C47.8227 15.9368 47.3023 15.3782 46.9819 14.7539C46.6775 14.113 46.5249 13.464 46.5249 12.8066C46.5249 12.1658 46.6849 11.5327 47.0054 10.9082C47.3258 10.2674 47.847 9.70092 48.5679 9.20801C49.2889 8.71504 50.21 8.45183 51.3315 8.41895H51.4761C51.5721 8.40254 51.6681 8.39454 51.7642 8.39453H60.8013Z" fill="#1C1D1F"/>
</svg>
