<svg xmlns="http://www.w3.org/2000/svg" viewBox="0 0 24 24" aria-label="Apple">
  <path fill="#000000" d="M17.05 12.04c-.03-2.86 2.34-4.24 2.45-4.31-1.34-1.96-3.42-2.22-4.16-2.25-1.77-.18-3.46 1.04-4.36 1.04-.91 0-2.3-1.02-3.78-.99-1.94.03-3.74 1.13-4.74 2.86-2.02 3.5-.52 8.68 1.45 11.52.96 1.39 2.11 2.95 3.61 2.89 1.45-.06 2-.94 3.75-.94s2.25.94 3.78.91c1.56-.03 2.55-1.41 3.5-2.81 1.1-1.61 1.56-3.17 1.59-3.25-.03-.01-3.05-1.17-3.09-4.66zM14.21 4.66c.8-.97 1.34-2.32 1.19-3.66-1.15.05-2.55.77-3.38 1.74-.74.86-1.4 2.24-1.22 3.55 1.29.1 2.6-.66 3.41-1.63z"/>
</svg>
