<svg xmlns="http://www.w3.org/2000/svg" viewBox="0 0 16 16" aria-label="Google">
  <path d="M15.5 8.2c0-.6-.1-1.1-.2-1.6H8v3h4.2c-.2.9-.7 1.7-1.5 2.2v1.8h2.4c1.4-1.3 2.4-3.2 2.4-5.4z" fill="#4285F4"/>
  <path d="M8 16c2 0 3.7-.7 5-1.8l-2.4-1.9c-.7.5-1.5.7-2.6.7-2 0-3.7-1.4-4.3-3.2H1.2v1.9C2.5 14.2 5 16 8 16z" fill="#34A853"/>
  <path d="M3.7 9.5c-.2-.5-.3-1-.3-1.5s.1-1 .3-1.5V4.6H1.2C.4 6 0 7.5 0 8s.4 2 1.2 3.4l2.5-1.9z" fill="#FBBC05"/>
  <path d="M8 3.2c1.1 0 2.1.4 2.9 1.1l2.2-2.2C11.7.8 10 0 8 0 5 0 2.5 1.8 1.2 4.6l2.5 1.9C4.3 4.5 6 3.2 8 3.2z" fill="#EA4335"/>
</svg>
